<svg id="Jeffs" xmlns="http://www.w3.org/2000/svg" width="1713.629" height="1178.465" viewBox="0 0 1713.629 1178.465">
  <defs>
    <style>
      .cls-1 {
        fill: #fff;
        fill-rule: evenodd;
      }
    </style>
  </defs>
  <g id="Logo">
    <path id="Jeff_s_copiar_2" data-name="Jeff’s copiar 2" class="cls-1" d="M568.151,974.531q26.693-1.962,47.614-9.927,20.91-7.986,35.5-18.937T670.77,928.1q27.483-33.45,38.881-72.876,11.384-39.408,20.463-78.019,4.178-18.264,11.42-52.667,7.221-34.384,12.309-73.39,5.075-38.988,6.943-76.526t-4.538-61.112q9.733-.441,15.114,2.685a10.726,10.726,0,0,0,4.944.255c1.921-.281,3.925-2.2,6.022-5.786a44.756,44.756,0,0,0,5.5-16.007q0.859-7.481.983-13.383-0.983-6.7-3.468-10.278a11.916,11.916,0,0,0-2.344-2.6q-8.842-13.412-23.667-14.178a99.089,99.089,0,0,0-30.884,3.55,189.314,189.314,0,0,0-19.471,7.76q-9.194,4.29-15.629,7.2-16.449,8.3-20.971,10.921a1.986,1.986,0,0,0-1.371.692,1.968,1.968,0,0,1-1.371.691q-10.019,5.4-22.2,12.573-12.2,7.191-24.392,14.366t-22.471,14.083Q590.295,532.957,584,536.815l-5.483,2.766a2.807,2.807,0,0,1-1.78,1.242q-29.21,15.087-43.842,8.883-14.658-6.168-21-16.041-4.694-5.194-8.729-2.642a27.805,27.805,0,0,0-7.322,6.958q-15.711,26.827-14.947,45.34,0.738,18.531,7.383,30.3a60.349,60.349,0,0,0,22.872,22.14q25.872,15.833,54.117,4.318,28.239-11.5,57-36.309,4.374-3.584,11.774-10.063,7.378-6.461,16.975-14.748,13.006-11.7,28.75-24.811,15.747-13.089,31.773-24.273,0.861,12.628-1.7,45.357t-9.626,74.958a880.711,880.711,0,0,1-19.537,87.689q-12.474,45.474-30.129,82.378T609.433,881.2q-23.481,24.039-54.092,22.645a2.809,2.809,0,0,0-2.062-.678,7.569,7.569,0,0,1-3.023-.537q-17.613-6.241-23.915-25.91a76.828,76.828,0,0,1-1.584-40.953q4.725-21.285,20.876-38.364,16.128-17.076,43.606-17.185,3.024,0.545,5.554-2.285c1.688-1.872,1.6-4.648-.235-8.3q-3.2-8.355-12.139-15.87a52.247,52.247,0,0,0-16.989-8.785,100.327,100.327,0,0,0-16.145-3.024l-12.771-.088q-19.509.909-40.127,10.79-20.629,9.9-34.548,35.468-6.574,8.824-13.624,30.927-7.062,22.134-3.524,52.979,2.987,33.876,20.73,57.757a101.327,101.327,0,0,0,44.816,34.61h0Q541.449,976.48,568.151,974.531ZM1243.1,584.512a78.908,78.908,0,0,1-11.14,14.383,46.279,46.279,0,0,1-10.82,8.206,28.994,28.994,0,0,1-8.61,3.224q-13.455,1.974-19.15-8.467t-2.19-26.646q4.68-18.338,15-29.9t24.74-13.681a27.569,27.569,0,0,1,6.39.044q-0.45-9.736-5.45-15.382t-14.6-4.231q-9.615,1.412-17.78,9.228a88.208,88.208,0,0,0-15.04,19.612,148.349,148.349,0,0,0-11.86,26.255,220.517,220.517,0,0,0-7.83,28.606l-16.72,66.684q29.64-1.891,36.01,31.488a109.543,109.543,0,0,0,25.83-7.956,103.828,103.828,0,0,0,21.2-12.672,89.391,89.391,0,0,0,15.84-15.807,82.018,82.018,0,0,0,10.27-16.952l10.07,11.762q-7.2,24.59-28.69,41.963T1184.9,719.8q-1.215,8.52-2.72,18.294a124.927,124.927,0,0,1-4.91,20.087q-14.67,47.258-34.82,73.753-20.175,26.493-43.22,29.875t-34.71-10.843q-11.655-14.229-3.52-45.816l21.75-88.551c-0.26.215-.51,0.436-0.78,0.65q-21.495,17.38-53.67,25.525-1.2,8.522-2.71,18.295a126.021,126.021,0,0,1-4.91,20.087q-14.67,47.258-34.828,73.752t-43.219,29.876q-23.058,3.382-34.71-10.843T904.4,828.119l10.094-41.082c-2.484,2.046-5.1,4.033-7.879,5.945q-27.195,18.7-66.1,24.407-20.175,2.961-35.435-2.4A54.369,54.369,0,0,1,780.233,797.8q-9.589-11.832-12.632-29.281t1.755-38.257q11.428-49.229,38.383-77.951,26.947-28.706,63.938-34.141,19.692-2.889,31.295,5.951a39.662,39.662,0,0,1,14.945,23.3q3.339,14.472-1.673,32.115A84.16,84.16,0,0,1,897.752,712.4,77.233,77.233,0,0,1,850.4,737.491L819.654,742q-3.084,22.516,9.8,35.09t35.459,9.261a70.929,70.929,0,0,0,20.4-6.425,107.994,107.994,0,0,0,19.355-11.911,98.16,98.16,0,0,0,16.114-15.6q1.71-2.086,3.241-4.19L953.887,626.7q11.843-49.783,38.553-78.467t63.7-34.105q15.36-2.254,25.52,3.365a35.329,35.329,0,0,1,15.09,15.927q4.935,10.308,4.79,24.3a88.112,88.112,0,0,1-4.99,27.943,108.349,108.349,0,0,1-10.05,21.822,78.459,78.459,0,0,1-11.14,14.382,46.313,46.313,0,0,1-10.82,8.207,29.109,29.109,0,0,1-8.6,3.224q-13.455,1.973-19.16-8.468t-2.18-26.646q4.665-18.336,15-29.9t24.74-13.68a27.469,27.469,0,0,1,6.38.043q-0.45-9.735-5.44-15.381t-14.61-4.231q-9.615,1.41-17.78,9.228a88.507,88.507,0,0,0-15.04,19.612A148.324,148.324,0,0,0,1016,590.128a218.934,218.934,0,0,0-7.83,28.606l-16.729,66.684q29.654-1.89,36.019,31.489a109.509,109.509,0,0,0,25.82-7.956,104.228,104.228,0,0,0,21.21-12.672,89.425,89.425,0,0,0,15.84-15.807c0.67-.876,1.31-1.75,1.94-2.624l18.21-74.125q11.85-49.783,38.56-78.466t63.69-34.106q15.375-2.254,25.52,3.366a35.319,35.319,0,0,1,15.09,15.927q4.95,10.308,4.79,24.3a88.1,88.1,0,0,1-4.98,27.943A109.434,109.434,0,0,1,1243.1,584.512ZM840.039,720.379a27.754,27.754,0,0,0,17.749-9.469q6.694-7.842,11.387-22.753a137.951,137.951,0,0,0,6.173-21.5,66.03,66.03,0,0,0,1.451-16.883q-0.51-6.786-3.843-9.487t-10.123,1.239q-4.525,2.629-10.022,10.3a122.237,122.237,0,0,0-10.749,18.738q-5.255,11.067-10.384,24.568a215.26,215.26,0,0,0-8.452,27.716Zm165.811,1.414q-2.025-8.769-7.424-12.149a16.364,16.364,0,0,0-12.537-1.838L956.231,826.889q-2.514,9.677.529,13.651t9.232-.619q6.194-4.587,14.626-19.062t16.851-40.716q6.8-20.6,8.6-35.092T1005.85,721.793Zm136.63-36.961-29.65,119.082q-2.52,9.678.53,13.651,3.03,3.969,9.23-.619t14.62-19.061q8.43-14.475,16.86-40.716,6.78-20.6,8.59-35.093t-0.22-23.257q-2.01-8.77-7.42-12.149A16.368,16.368,0,0,0,1142.48,684.832ZM1277.2,589.56l17.8,4.253a213.145,213.145,0,0,1,19.65-26.662q9.66-10.98,16.95-19.894a79.566,79.566,0,0,0,11.17-17.572q3.885-8.661,2.26-19.7a32.525,32.525,0,1,0-64.36,9.444q1.395,9.606,6.09,14.8Zm170.89,0.915q-2.25,8.19,2.59,14.329l1.1,0.819c1.65,2.378,4.96,3.685,9.9,3.941s12.26-2.288,21.95-7.632q13.71-6.908,25.72-25.348a134.786,134.786,0,0,0,17.45-38.352q5.4-19.915,2.34-37.606-3.105-17.68-18.76-24.215a56.957,56.957,0,0,0-26.73-4.905,64.9,64.9,0,0,0-25.85,7.716c-1.83.927-3.66,1.854-5.49,2.766a55.107,55.107,0,0,0-6.3,3.867,150.822,150.822,0,0,0-26.56,23.018,129.529,129.529,0,0,0-16.74,23.049,136.928,136.928,0,0,0-9.34,20,93.353,93.353,0,0,0-3.66,11.815,57.075,57.075,0,0,0-3.35,24.026q1.275,15.51,13.22,29.931,11.91,14.432,40.91,18.022a274.686,274.686,0,0,1,31.75,9.071,88.148,88.148,0,0,1,19.6,9.872q8.19,5.67,4.52,14.047c-2.47,5.6-8.74,8.483-18.86,8.649q-15.18.274-33.11-4.948a138.834,138.834,0,0,1-33.55-14.689q-15.63-9.476-20.47-22.493c-3.22-4.093-6.43-5.921-9.63-5.451-1.2.834-2.67,1.862-4.45,3.1s-3.09,3.563-3.89,6.945q-2.04,6.183-3.63,22.106-1.605,15.932,5.4,33.529,6.99,17.612,26.13,30.978,19.11,13.375,60.47,14.173,19.62,0.061,35.4-6.175,13.02-4.852,24.59-16.356,11.565-11.487,13.13-34.287,1.71-21.808-8.01-34.616a64.432,64.432,0,0,0-23.96-19.529,94.231,94.231,0,0,0-28.73-8.533q-14.505-1.781-23.56-3.408a19.019,19.019,0,0,1-12.6-8.938,34.159,34.159,0,0,1-4.93-16.928,98.77,98.77,0,0,1,1.37-20.793,139.7,139.7,0,0,1,5.21-21.358l0.82-1.1-0.14-.96q7.35-16.752,15.7-26.818,8.325-10.047,13.99-4.994c2.39,2.928,3.63,6.99,3.75,12.2a59.4,59.4,0,0,1-2.42,17.024,108.548,108.548,0,0,1-6.32,17.108q-3.765,7.907-7.17,11.348h0A51.8,51.8,0,0,0,1448.09,590.475Z" transform="translate(-173.031 -454.125)"/>
    <path id="Burger" class="cls-1" d="M1884.61,945.11q-4.41,4.275-11.26,10.216a85.342,85.342,0,0,1-15.83,10.786,75.389,75.389,0,0,1-18.15,7.055,26.318,26.318,0,0,1-17.35-1.392,69.036,69.036,0,0,1-10.52-6.263q-4.92-3.546-4.54-25.252l-0.83-1.751c-1.46-.012-2.33.407-2.63,1.256q-4.125,11.644-6.4,29.4a237.9,237.9,0,0,0-1.76,36.858,159.506,159.506,0,0,0,5.2,36.76q4.665,17.685,15.33,28.7a13.356,13.356,0,0,1,2.89,8.3,20.951,20.951,0,0,1-2.33,8.64c-0.9,1.13-1.78,1.55-2.63,1.25q-23.16,7.845-38.37,8.65-15.225.825-25.37-2.4a31.2,31.2,0,0,1-15.87-10.7,65.323,65.323,0,0,1-8.45-14.95l0.04,0.12s-9.72,25.53-16.34,38.48a193.238,193.238,0,0,1-36.08,49.48A87.833,87.833,0,0,1,1621,1183.9q-28.3,3.84-45.6-12.09t-24.65-41.45q-7.35-25.53-5.93-56.31a240.884,240.884,0,0,1,9.75-58.42,228.043,228.043,0,0,1,12.97-32.531,150.64,150.64,0,0,1,18.77-29.4,78.739,78.739,0,0,1,24.7-20.393,50.013,50.013,0,0,1,29.84-5.113,27.879,27.879,0,0,1,17.42,9.423,51.174,51.174,0,0,1,10.49,19.716,85.652,85.652,0,0,1,3.23,25.879,159.4,159.4,0,0,1-3.13,28.374,83.289,83.289,0,0,1-5.57,19.86c-1.22,3.46-2.29,6.47-3.2,9.06a22.754,22.754,0,0,1-4.92,7.72q-10.785,20.235-25.12,31.89-14.34,11.685-24,18.45,7.9,18.81,18.93,21.6t23.52-3.7q12.48-6.495,25.36-21.25a268.351,268.351,0,0,0,23.36-31.05,240.63,240.63,0,0,0,17.75-32.67c0.09-.2.26-0.59,0.26-0.59l0.11,0.41c-0.61-2.79-1.19-5.57-1.74-8.31a299.169,299.169,0,0,1-5.32-41.536q-1.155-20.415-.98-41.463,0.15-21.043,1.05-46.2,1.035-9.085,11.07-11.739,10.05-2.628,13.51-2.147,2.16,0.05,5.86-.113a39.051,39.051,0,0,1,9.75,1.258c3.16,0.639,7.77,2.742,13.78,6.321s8.65,9.85,7.91,18.8c-0.69,6.078-1.11,13.434-1.27,22.111s-0.03,17.942.37,27.782c0.22,3.489.37,6.808,0.47,9.99,0.07,3.188.24,6.521,0.47,9.99a162.173,162.173,0,0,0,1.83-17.544,200.609,200.609,0,0,1,4.67-29.645,227.907,227.907,0,0,1,11.73-36.247,141.887,141.887,0,0,1,23.05-37.348,8.771,8.771,0,0,1,3.33-4.281,8.641,8.641,0,0,0,3.34-4.28,68.685,68.685,0,0,1,13.66-10.825q7.9-4.833,17.38-.776,14.25,5.043,16.82,18.309a93.6,93.6,0,0,1,1.97,23.253q0.255,9.557-.35,19.523a122.133,122.133,0,0,0,.1,18.23,39.334,39.334,0,0,0,3.23,13.511q2.505,5.252,9.02,5.368a21.916,21.916,0,0,1,5.56,4.872Q1888.145,941.28,1884.61,945.11ZM1611.3,1048.76l3.2-9.06q5.04-14.22,5.15-20.74a104.758,104.758,0,0,0,.23-24.3q-1.32-11.72-8.2-14.9-4.71-3.114-9.41,3.956-4.68,7.078-7.51,19.175a168.157,168.157,0,0,0-3.77,28.15,125.435,125.435,0,0,0,1.83,30.84,16.266,16.266,0,0,0,1.38,7.4,16.443,16.443,0,0,1,1.39,7.41q5.79-8.145,9.6-14.81A80.438,80.438,0,0,0,1611.3,1048.76Zm-62.99,180.07a23.244,23.244,0,0,0,4.15-1.45q12.21-3.69,29.16-3.17,16.905,0.51,28.34,17.65,17.76,25.905,17.08,51.51-0.675,25.575-4.84,39.41a208.033,208.033,0,0,1-25.6,46.63q-16.485,22.92-45.44,38.9-32.055,18.54-55.59,12.04a75.032,75.032,0,0,1-38.85-25,118.908,118.908,0,0,1-22.27-40.97q-6.99-22.47-5.45-35.03a207.8,207.8,0,0,0-29.41,17.27q-14.055,8.85-30.78,21.15a337.637,337.637,0,0,0-34.41,29.34q-7.08,7.665-15.05,15.79-7.08,7.665-15.95,17.29-8.865,9.6-18.2,21.6-5.805,8.13-18.22,22.67t-28.14,31.19a369.673,369.673,0,0,1-34.68,32.15,190.3,190.3,0,0,1-38.23,24.71q-43.4,21.78-71.17,8.71-27.765-13.1-36.7-47.52-0.84-1.755-.09-6.94,0.75-5.205,9.43-5.04,6.51,0.1,17.38-.78,10.875-.9,26.84-6.9a284.518,284.518,0,0,0,36.8-17.58q20.85-11.565,46.82-31.5,30.825-23.325,52.45-42.25,21.615-18.945,42.56-35.91,20.94-17.01,44.26-33.5,23.325-16.545,57.11-35.88a138.218,138.218,0,0,1,26.7-11.68,76.276,76.276,0,0,1,19.6-2.9c6.07-.05,10.21,3,12.43,9.11a211.47,211.47,0,0,1,4.32,24.82,66.015,66.015,0,0,0,9.07,26.85q7.17,11.625,22.98,14.29,15.795,2.67,46.47-11.98a102.328,102.328,0,0,0,26.44-21.23,169.893,169.893,0,0,0,19.4-28.08q9.645-16.98,11.42-42.54a10.574,10.574,0,0,0-.76-6.09c-1.68-3.5-4.41-4.72-8.19-3.62q-3.93.8-17.71,6.85a129.958,129.958,0,0,0-27.89,17.08,114.75,114.75,0,0,0-23.68,24.75,33.87,33.87,0,0,0-5.11,29.85,6.3,6.3,0,0,1-.95,4.76c-0.91,1.14-1.78,1.56-2.63,1.26a69.965,69.965,0,0,1-9.14,1.14,27.849,27.849,0,0,1-11.05-1.72,36.687,36.687,0,0,1-11.17-6.49q-5.355-4.44-8.24-12.73-5-12.69,1.37-27.53,6.345-14.88,21.79-27.61c-3.77-.35-6.2-1.71-7.31-4.04q-1.26-2.625.11-6.5a6.2,6.2,0,0,1,1.38-3.89q10.29-16.725,9.62-39.53a183.611,183.611,0,0,0-7.21-45.48,278.713,278.713,0,0,1-3.01,34.23,153.936,153.936,0,0,1-10.23,37.14,114.582,114.582,0,0,1-19.69,31.98q-12.2,13.89-32.27,19.18-28.8,7.29-43.65-11.41-14.85-18.72-20.43-47.24a269.572,269.572,0,0,1-4.55-60.18q1.02-31.665,5.25-49.82a236.712,236.712,0,0,1,15.38-45.51q10.635-23.88,32.08-33.07a89.851,89.851,0,0,1,9.83-3.08q8.07-2.235,18.02.54a32.08,32.08,0,0,1,16.73,11.36,62.485,62.485,0,0,1,10.48,20.8c-0.31.87-.07,3.63,0.71,8.26a49.022,49.022,0,0,1-4.27,20.32,34.1,34.1,0,0,1-14.64,16.67q-7.89,3.765-10.02,1.56c-3.14-2.08-4.7-4.56-4.64-7.46a6.276,6.276,0,0,1,1.38-3.88c0.89-1.13,1.36-3.51,1.43-7.14a61.229,61.229,0,0,0-.68-10.43,18.231,18.231,0,0,0-4.39-9.19,13.52,13.52,0,0,0-9.25-4.72,14.389,14.389,0,0,0-10.04,2.64,43.365,43.365,0,0,0-7.51,6.81,46.587,46.587,0,0,0-5.13,7.29,41.556,41.556,0,0,0-2.47,4.95q-5.415,11.2-7.11,32.42a145.683,145.683,0,0,0,2.3,40.84q6.885,27.9,17.34,37.41,10.455,9.525,24.91,3.7,6.12-2.925,13.68-11.91a121.966,121.966,0,0,0,13.83-20.59q6.3-11.6,11.94-23.44a122.9,122.9,0,0,0,7.97-20.47,45.779,45.779,0,0,1-3.72-10.05l-4.19-8.75q-4.11-13.1,6.57-26.79a88.262,88.262,0,0,1,11.93-11.08q9.675-6.765,20.07-5.28t14.16,9.36a147.589,147.589,0,0,1,9.23,18.18,160.093,160.093,0,0,1,6.59,19.43q3.675,12.225,7.58,37.24,3.885,25.02-2.27,52.69a78.853,78.853,0,0,1-5.3,17.05,90.579,90.579,0,0,1-7.85,13.96l17.52-8.37A26.355,26.355,0,0,1,1548.31,1228.83Zm-216.44-14.91a86.035,86.035,0,0,1-15.83,10.79,75.488,75.488,0,0,1-18.15,7.05,26.362,26.362,0,0,1-17.35-1.39,70.113,70.113,0,0,1-10.53-6.26q-4.92-3.555-4.53-25.26l-0.84-1.75c-1.45-.01-2.33.41-2.63,1.26q-4.11,11.64-6.39,29.4a237.78,237.78,0,0,0-1.76,36.85,160.211,160.211,0,0,0,5.19,36.77q4.68,17.67,15.33,28.7a13.19,13.19,0,0,1,2.89,8.29,20.918,20.918,0,0,1-2.32,8.64c-0.91,1.14-1.78,1.56-2.63,1.26q-23.175,7.83-38.38,8.65-15.225.81-25.36-2.41a31.211,31.211,0,0,1-15.88-10.69,67.588,67.588,0,0,1-9.45-17.53q-6.945-23.55-11.13-44.68a297.833,297.833,0,0,1-5.32-41.54q-1.155-20.415-.99-41.47,0.165-21.03,1.06-46.2,1.035-9.075,11.07-11.73c6.7-1.76,11.19-2.48,13.5-2.15,1.45,0.03,3.4-.01,5.87-0.12a39.792,39.792,0,0,1,9.75,1.26q4.74,0.96,13.78,6.32,9.015,5.37,7.91,18.81c-0.7,6.07-1.11,13.43-1.27,22.11s-0.04,17.94.36,27.78c0.22,3.49.38,6.81,0.47,9.99s0.24,6.52.47,9.99a163.977,163.977,0,0,0,1.84-17.55,201.754,201.754,0,0,1,4.66-29.64,227.022,227.022,0,0,1,11.74-36.25,142.148,142.148,0,0,1,23.04-37.35,8.835,8.835,0,0,1,3.34-4.28,8.6,8.6,0,0,0,3.33-4.28,69.174,69.174,0,0,1,13.66-10.82q7.9-4.83,17.39-.78,14.235,5.04,16.82,18.31a94.57,94.57,0,0,1,1.97,23.25q0.255,9.555-.36,19.53a123.493,123.493,0,0,0,.1,18.23,39.8,39.8,0,0,0,3.23,13.51c1.68,3.5,4.68,5.29,9.03,5.37a21.658,21.658,0,0,1,5.55,4.87q2.55,3.09-.99,6.92Q1338.72,1207.975,1331.87,1213.92Zm-176.41,53.07a112.592,112.592,0,0,0,2.08,16.74q3.78,30.45,15.71,55.4t30.43,34.39a33.575,33.575,0,0,1,5.99,4.66q2.985,2.865-.55,6.72-4.425,4.26-11.26,10.22a87.353,87.353,0,0,1-15.83,10.78,103.677,103.677,0,0,1-20.34,8.1,69.136,69.136,0,0,1-24.8,2.17q-8.655-2.325-11.57-8.45a174.579,174.579,0,0,1-9.87-18.41,225.062,225.062,0,0,1-11.39-30.58q-2.535,19.515-6.33,37.43-3.8,17.94-10.55,30.84-4.08,9.495-9.79,13.28a18.723,18.723,0,0,1-7.51,6.81q-32.055,18.54-56.88-.79t-33.786-76.33a30.056,30.056,0,0,1-1.1-11.3,4.236,4.236,0,0,1-.4-1.96,4.33,4.33,0,0,0-.4-1.96q-4.773-48.255-2.693-78.82t2.991-33.15q1.03-9.075,10.633-11.53c6.394-1.6,10.756-2.26,13.059-1.93a36.748,36.748,0,0,1,15.62,1.14c3.16,0.64,7.77,2.74,13.78,6.32s8.94,9.71,8.79,18.39q-1.05,9.105-1.27,22.11-0.24,13.005.36,27.78c0.22,3.49.38,6.81,0.47,9.99s0.24,6.52.47,9.99c0.28,0.59.27,0.95-.02,1.08-0.3.15-.29,0.51-0.02,1.09,0.81,3.21,1.8,7.92,3,14.15a90.274,90.274,0,0,0,5.32,17.89,52.5,52.5,0,0,0,8.43,14.26q4.875,5.73,11.44,3.67a3.95,3.95,0,0,0,2.21-2.13q4.86-5.55,9.06-20.45a269.208,269.208,0,0,0,6.91-33.95q2.73-19.035,4.61-38.76,1.89-19.7,3.04-35.31a283.326,283.326,0,0,1,3.35-29.02,145.8,145.8,0,0,1,8.6-31.53l0.88-.42q0.03-2.16,5.38-9.02c0.88-1.13,2.64-1.96,5.25-2.51,2.04-.25,4.42-0.5,7.18-0.74s6.28,0.41,10.61,1.93a0.852,0.852,0,0,0,1.29.45l2.17,0.04,9.02,5.37,0.42,0.87a0.878,0.878,0,0,1,1.3.46q7.68,7.1,7.07,17.05-1.035,9.12-1.71,22.32a179.153,179.153,0,0,0,.8,27.58Q1154.97,1258.1,1155.46,1266.99ZM787.152,1447.71q1.216,4.815,3.817,17,2.608,12.21,4.535,25.25a146.3,146.3,0,0,1,1.737,23.9q-0.207,10.86-4.578,12.94-7.023,3.345-22.453,4.81t-26.638-3.95l-5.6-2.7q-2.178-.015-4.034-5.06-1.863-5.01-4.105-13.1a119.591,119.591,0,0,1-3.379-17.2q-1.137-9.135-1.855-17.39-2.665-21.3-3.663-49.32-1.019-27.99-.06-56.42,0.954-28.41,4.471-54.82t9.511-45.4a24,24,0,0,1,3.225-10.14q2.687-4.515,9.527-10.47t19.983-12.23a13.009,13.009,0,0,1,5.885-1.2q3.255,0.06,5.766,5.31,2.1,4.395.142,16.06-1.953,11.7-3.03,35.32-1.082,23.655.608,62.07Q778.651,1389.43,787.152,1447.71Zm125.386-112.56q16.437,3.99,33.6,15.13,17.161,11.16,28.883,35.67,15.483,32.4,14.222,65.78a159.755,159.755,0,0,1-16.15,64.17q-14.911,30.75-42.29,56.75a243.927,243.927,0,0,1-63.322,43.14A209.863,209.863,0,0,1,836,1627.6a125.913,125.913,0,0,1-36.354,5,131.846,131.846,0,0,1-39.185-6.56q-20.3-6.42-38.679-22.38-3.855-3.525-8.107-7.96-6.806-7.485-13.506-21.5c-1.674-3.5-1.085-8.25,1.779-14.29a45.385,45.385,0,0,1,11.13-14.99,30.3,30.3,0,0,1,14.248-7.35q7.416-1.365,11.592,7.37l2.092,4.38q12.159,23.22,35.684,31.88,23.508,8.655,50.634-2.14,30.169-11.19,46.655-34.11a131.156,131.156,0,0,0,22.177-49.3,166.38,166.38,0,0,0,3.117-52.02q-2.567-25.635-10.523-42.29-9.62-20.115-24.411-30.81-14.79-10.68-26.1-9.57a45.206,45.206,0,0,1-7.467,4.64c-2.341,1.11-4.682,2.23-7.01,3.34q-28.914,13.815-34.771,1.56-2.09-4.38,1.112-13.44,3.2-9.03,15.472-14.91,4.374-2.085,8.971-3.75,4.59-1.635,9.389-2.87,1.8-3,11.876-20.19,10.084-17.16,18.345-41.55a233.868,233.868,0,0,0,10.963-53.62,105.932,105.932,0,0,0-10.266-56.38q-19.239-40.26-66.56-17.68-16.654,7.965-33.741,28.48a224.5,224.5,0,0,0-29.964,47.64,273.112,273.112,0,0,0-19.726,57.81q-6.868,30.69-2.568,57.67,2.049,6.555,1.1,11.3c-0.432,8.11-2.407,12.98-5.912,14.66-1.177.56-4.78-.22-10.814-2.37a121.121,121.121,0,0,1-21.093-10.35,156.935,156.935,0,0,1-24.21-18.01,78.085,78.085,0,0,1-18.874-24.85c-3.066-6.42-4.55-12.51-4.444-18.31q0.863-.4,5.115-18.57t19.7-44.35q15.459-26.19,44.669-56.28,29.211-30.075,80.03-54.35,14.887-7.11,36.721-13.23a145.382,145.382,0,0,1,44.828-5.28,97.343,97.343,0,0,1,44.284,12.72q21.272,11.895,35.088,40.76a152.7,152.7,0,0,1,6.236,15.3,128.865,128.865,0,0,1,4.863,19.19,122.965,122.965,0,0,1-1.744,48.14q-4.749,21.615-19.757,47.6t-47.638,52.32c0.575-.27,5.009-0.78,13.273-1.5S901.587,1332.5,912.538,1335.15Z" transform="translate(-173.031 -454.125)"/>
    <path id="_9" data-name="9" class="cls-1" d="M1574.49,874.5q58.845-24.18,99.96-50.77t66.46-53.911q25.335-27.317,37.36-53.533t13.02-50.224q0.99-24-6.57-43a91.93,91.93,0,0,0-21.88-32.714,81.46,81.46,0,0,0-32.15-19.329,65.562,65.562,0,0,0-24.28-2.891,54.985,54.985,0,0,0-22.96,6.647,56.552,56.552,0,0,0-18.67,17.119q-8.1,11.328-11.41,28.527l10.85,10.941q5.43-29.643,23.2-40.837,17.79-11.187,40.21-1.376a51.676,51.676,0,0,1,24.25,22.186q8.49,15.044,8.12,34.917t-10.59,42.65q-10.23,22.77-31.48,45.032t-54.35,42.755q-33.105,20.486-79.58,35.418-82.32,27-161.85,45.1-79.515,18.084-159.29,31.555t-161.65,25.51q-81.885,12.041-168.936,26.967-87.045,14.908-181.13,35.922T553.129,1029.47q-82.361,25.035-146.654,59.33t-111.094,74.77q-46.8,40.485-77.186,84.98t-45.178,89.01q39.786-26.985,76.866-38.16t68.291-10.13q31.206,1.02,54.86,11.76t36.574,27.54q28.094-46.6,72.368-85.42t100.722-71a1003.01,1003.01,0,0,1,123.01-58.93q66.572-26.745,139.23-49.18t148.983-41.4q76.318-18.96,152.309-36.36t149.52-33.88q73.515-16.488,140.24-33.375Q1515.655,898.666,1574.49,874.5Z" transform="translate(-173.031 -454.125)"/>
  </g>
</svg>
