<svg xmlns="http://www.w3.org/2000/svg" xmlns:xlink="http://www.w3.org/1999/xlink" width="462" height="810.437" viewBox="0 0 462 810.437">
  <defs>
    <style>
      .cls-1 {
        filter: url(#filter);
      }

      .cls-2 {
        fill: #fff;
        fill-rule: evenodd;
      }
    </style>
    <filter id="filter" filterUnits="userSpaceOnUse">
      <feFlood result="flood" flood-color="#252525"/>
      <feComposite result="composite" operator="in" in2="SourceGraphic"/>
      <feBlend result="blend" in2="SourceGraphic"/>
    </filter>
  </defs>
  <g id="Logo" class="cls-1">
    <path id="Boneco" class="cls-2" d="M2811.97,379.351c0.23,18.444-11.37,35.5-29.59,43.207a68.721,68.721,0,0,1-34.86,5.2c-6.7-.756-13.52-1.429-19.95-3.319-11.21-3.3-20.58-9.516-26.1-20.308-6.61,11.448-16.57,18.21-29.21,21.105-17.38,3.984-34.7,4.073-51.64-2.126-18.08-6.62-28.82-19.639-32.36-38.521a51.434,51.434,0,0,1-.38-6.739c2.17,2.507,4.07,4.981,6.25,7.185,9.58,9.684,24.49,13.165,37.42,5.021a179.306,179.306,0,0,0,18.42-13.88c12.5-10.317,33.57-10.047,44.12,1.139,3.09,3.273,5.23,7.438,7.69,11.041,1.53-2.276,3.28-5.263,5.4-7.961,6.79-8.654,15.8-12.162,26.72-11.328,9.15,0.7,16.44,4.923,23.11,10.9,6.12,5.479,12.65,10.527,20.58,13.19,10.33,3.463,19.47.974,27.41-6.151A98.861,98.861,0,0,0,2811.97,379.351Zm-135.39-41.214c0.01,7.767-6.33,14.31-13.88,14.323a14.4,14.4,0,0,1-14.32-14.39,13.927,13.927,0,0,1,14.21-14.3A14.068,14.068,0,0,1,2676.58,338.137Zm80.21,2.1c0.03,3.531-2.93,5.227-5.4,3.694a31.26,31.26,0,0,0-11.76-4.66,22.067,22.067,0,0,0-15.34,3.167c-2.62,1.591-3.92,1.724-5.44.257s-1.78-3.5-.33-5.756a20.867,20.867,0,0,1,13.64-9.267c9.39-1.985,16.66,1.927,22.62,8.827A16.573,16.573,0,0,1,2756.79,340.235Zm-53.61-49.65c-6.94-.138-13.89-0.061-20.82.152l-5.21.219-5.2.29q-5.19.306-10.38,0.758c-12.48,1.054-25.98,3.794-38.52,6.236-0.34,4.748-.68,8.982-1.02,12.383a0.791,0.791,0,0,0,.88.9c8.57-2.082,39-7.381,72.36-7.392a408.807,408.807,0,0,1,87.45,9.712,0.788,0.788,0,0,0,.85-0.885c-0.25-3.595-.44-6.846-0.72-10.089-0.03-.4-0.07-0.859-0.1-1.361-12.44-2.726-25.7-6.395-37.98-7.892A400.859,400.859,0,0,0,2703.18,290.585ZM2822.5,146.706c-13.9-10.852-29.76-15.958-47.6-13.955a61.056,61.056,0,0,0-29.63,11.178,53.666,53.666,0,0,0-10.69,10.288,0.827,0.827,0,0,1-1.42-.816q8.265-20.088,28.87-28.987a0.821,0.821,0,0,0,.34-1.246c-14.17-18.9-42.19-31.807-74.49-26.513-19.52,3.2-36.03,12.216-48.51,27.8-11.38,14.21-17.59,30.281-18.07,48.311a0.824,0.824,0,0,1-1.6.252c-4.25-11.977-5-24.121-.93-36.7a0.822,0.822,0,0,0-.66-1.077c-9.24-1.276-17.88.512-26.29,3.66-19.94,7.463-32.47,25.854-32.82,43.7-0.26,13.489,4.17,25.176,13.54,34.756,10.91,11.157,24.93,15.56,40.07,16.527,4.56,0.292,9.21-.747,13.88-1.314a0.829,0.829,0,0,1,.92.9c-1.28,12.827-2.57,37.66-3.85,57.324,5.31-1.475,10.67-2.7,16.07-3.769,6.99-1.392,14.04-2.436,21.11-3.257a294.313,294.313,0,0,1,42.65-1.691c7.12,0.165,14.22.689,21.3,1.329s14.14,1.594,21.15,2.689a357.952,357.952,0,0,1,36.49,7.845c-0.65-13.929-1.34-36.9-1.82-43.971-0.26-3.882-1-6.935-5.52-7.543a12.129,12.129,0,0,1-2.33-.878c-24.22-8.768-49.28-13.192-74.95-14.646a293.725,293.725,0,0,0-52.27,1.813,5.048,5.048,0,0,1,1.15-.693,230.433,230.433,0,0,1,54.93-8.1,247.546,247.546,0,0,1,36.91,1.955,223.288,223.288,0,0,1,33.8,6.882c6.58,1.908,12.81,4.649,20.18,3.4,12.88-2.183,24.53-6.526,33.93-15.8,8.93-8.808,14.24-19.513,14.51-32.078C2841.18,168.8,2834.56,156.125,2822.5,146.706Zm-76.48,294.242c17.57,5.908,34.99,11.945,51.04,21.469,14.71,8.731,23.92,21.148,27.22,37.845,2.33,11.758,4.37,23.574,6.48,35.375q3.675,20.625,7.26,41.271,3.345,19.177,6.67,38.362c0.4,2.348.76,4.705,1.21,7.045,0.99,5.11-1.55,9.578-6.63,10.664-11.48,2.454-22.98,4.849-34.54,6.87-10.06,1.758-20.19,3.135-30.32,4.371-7.94.969-15.93,1.681-23.92,2.119-13.13.719-26.27,1.435-39.42,1.58-15.71.172-31.44-.259-47.57-0.433V644.6q0.18-66.11.32-132.219c0-2.27,1.25-3.235,2.78-4.222,7.29-4.673,14.69-9.163,21.85-14.029a305.535,305.535,0,0,0,49.85-42.592,50.416,50.416,0,0,0,4.08-4.975C2743.64,444.839,2744.71,442.984,2746.02,440.948Zm-54.31,162.213c0.02-4.822-3.92-8.974-8.42-8.874a9.048,9.048,0,0,0-8.47,8.707,8.748,8.748,0,0,0,8.45,8.622A8.335,8.335,0,0,0,2691.71,603.161Zm0.42-76.831a8.448,8.448,0,1,0-8.21,8.287A8.625,8.625,0,0,0,2692.13,526.33Zm-8.52,46.576a8.211,8.211,0,0,0,8.22-8.329,8.3,8.3,0,1,0-16.6-.086A8.2,8.2,0,0,0,2683.61,572.906Zm-31.66,73.579c-5.88-.459-11.4-0.77-16.89-1.349q-11.565-1.218-23.08-2.779c-7.67-1.05-15.34-2.142-22.95-3.542-9.05-1.665-18.06-3.562-27.04-5.579-6.89-1.548-9.22-5.665-7.9-12.893q4.995-27.276,9.87-54.571c3.52-19.738,6.91-39.5,10.45-59.231,1.84-10.259,4.74-20.14,11.12-28.68,5.41-7.246,12.64-12.214,20.34-16.682,15.1-8.765,31.51-14.307,47.74-19.878,9.59,15.077,24,25.033,36.95,36.891-5.37,3.729-10.72,7.565-16.2,11.215-4.46,2.97-9.06,5.725-13.6,8.559-5.8,3.612-8.47,8.587-8.46,15.633,0.03,43.259-.21,86.518-0.35,129.777v3.109Z" transform="translate(-2468.53 -95.469)"/>
    <g id="Texto">
      <path id="JEFF_S_" data-name="JEFF’S " class="cls-2" d="M2520.04,674.364a2.436,2.436,0,0,0-.62-1.667,4.6,4.6,0,0,0-2.09-1.19,19.247,19.247,0,0,0-3.86-.714q-2.385-.237-6-0.238t-6.09.238a17.455,17.455,0,0,0-3.86.714,4.568,4.568,0,0,0-2,1.19,2.484,2.484,0,0,0-.62,1.667v84.664a35.236,35.236,0,0,1-.67,7.619,12.578,12.578,0,0,1-1.95,4.714,6.885,6.885,0,0,1-3.24,2.476,13.129,13.129,0,0,1-4.52.715,14.558,14.558,0,0,1-4.48-.619,29.188,29.188,0,0,1-3.33-1.286c-0.95-.444-1.81-0.872-2.57-1.286a4.344,4.344,0,0,0-2-.619,2.337,2.337,0,0,0-1.57.524,3.394,3.394,0,0,0-.95,1.809,18.544,18.544,0,0,0-.48,3.524c-0.1,1.493-.14,3.318-0.14,5.476q0,2.478.09,4.095a14.018,14.018,0,0,0,.38,2.714,7.025,7.025,0,0,0,.67,1.762,6.882,6.882,0,0,0,.95,1.286,7.265,7.265,0,0,0,2.29,1.381,30.688,30.688,0,0,0,4.04,1.428,41.763,41.763,0,0,0,5.15,1.1,37.546,37.546,0,0,0,5.66.428,40.124,40.124,0,0,0,15.05-2.476,23.8,23.8,0,0,0,9.86-7.19,28.547,28.547,0,0,0,5.33-11.428,66.283,66.283,0,0,0,1.57-15.1V674.364Zm96.55,105.568a12.309,12.309,0,0,0-.71-3,3.908,3.908,0,0,0-1.19-1.666,2.621,2.621,0,0,0-1.58-.524h-44.38V739.981h37.24a2.754,2.754,0,0,0,1.57-.476,3.48,3.48,0,0,0,1.19-1.571,10.983,10.983,0,0,0,.72-2.9,43.2,43.2,0,0,0,0-9.1,11.07,11.07,0,0,0-.72-2.952,3.845,3.845,0,0,0-1.19-1.619,2.586,2.586,0,0,0-1.57-.524h-37.24v-30.1h44a2.431,2.431,0,0,0,1.53-.523,4.114,4.114,0,0,0,1.14-1.667,11.863,11.863,0,0,0,.71-3,36.061,36.061,0,0,0,.24-4.524,37.968,37.968,0,0,0-.24-4.714,12.65,12.65,0,0,0-.71-3.047,3.725,3.725,0,0,0-1.14-1.667,2.593,2.593,0,0,0-1.53-.476h-61.52a7.766,7.766,0,0,0-5.28,1.857q-2.145,1.857-2.15,6.048V786.456q0,4.192,2.15,6.047a7.762,7.762,0,0,0,5.28,1.858h61.9a2.614,2.614,0,0,0,1.58-.524,3.893,3.893,0,0,0,1.19-1.667,12.309,12.309,0,0,0,.71-3A44.568,44.568,0,0,0,2616.59,779.932Zm88.31-103.378a11.5,11.5,0,0,0-.76-3.19,4.451,4.451,0,0,0-1.19-1.714,2.437,2.437,0,0,0-1.53-.524h-57.99a7.792,7.792,0,0,0-5.29,1.857q-2.145,1.857-2.14,6.048V790.742a2.738,2.738,0,0,0,.62,1.809,4.591,4.591,0,0,0,2.04,1.286,17.63,17.63,0,0,0,3.86.809,64.556,64.556,0,0,0,12.14,0,18.45,18.45,0,0,0,3.86-.809,4.3,4.3,0,0,0,2.05-1.286,2.931,2.931,0,0,0,.57-1.809v-45.9h37.81a2.378,2.378,0,0,0,1.52-.524,4.408,4.408,0,0,0,1.19-1.761,12,12,0,0,0,.76-3.143,47.363,47.363,0,0,0,0-9.524,10.643,10.643,0,0,0-.76-3.047,4.024,4.024,0,0,0-1.19-1.619,2.541,2.541,0,0,0-1.52-.476h-37.81V691.6h40.28a2.3,2.3,0,0,0,1.53-.572,5,5,0,0,0,1.19-1.714,10.729,10.729,0,0,0,.76-3.1,40.4,40.4,0,0,0,.24-4.81A41.665,41.665,0,0,0,2704.9,676.554Zm86.6,0a11.467,11.467,0,0,0-.77-3.19,4.347,4.347,0,0,0-1.19-1.714,2.39,2.39,0,0,0-1.52-.524h-58a7.766,7.766,0,0,0-5.28,1.857q-2.145,1.857-2.15,6.048V790.742a2.792,2.792,0,0,0,.62,1.809,4.631,4.631,0,0,0,2.05,1.286,17.5,17.5,0,0,0,3.86.809,64.556,64.556,0,0,0,12.14,0,18.593,18.593,0,0,0,3.86-.809,4.265,4.265,0,0,0,2.04-1.286,2.931,2.931,0,0,0,.57-1.809v-45.9h37.81a2.426,2.426,0,0,0,1.53-.524,4.408,4.408,0,0,0,1.19-1.761,12,12,0,0,0,.76-3.143,47.363,47.363,0,0,0,0-9.524,10.643,10.643,0,0,0-.76-3.047,4.024,4.024,0,0,0-1.19-1.619,2.593,2.593,0,0,0-1.53-.476h-37.81V691.6h40.29a2.26,2.26,0,0,0,1.52-.572,4.863,4.863,0,0,0,1.19-1.714,10.7,10.7,0,0,0,.77-3.1,42.922,42.922,0,0,0,.23-4.81A44.276,44.276,0,0,0,2791.5,676.554Zm44.69-10.666a6.2,6.2,0,0,0-2.29-3.1,9.023,9.023,0,0,0-3.95-1.429,42.154,42.154,0,0,0-5.71-.333,46.1,46.1,0,0,0-6,.333,9.5,9.5,0,0,0-4.1,1.429,6.355,6.355,0,0,0-2.38,3.1,14.938,14.938,0,0,0-.76,5.238v14.952l-11.62,26.285a4,4,0,0,0-.43,1.857,1.564,1.564,0,0,0,.81,1.286,6.152,6.152,0,0,0,2.48.666,41.751,41.751,0,0,0,4.47.191,36.017,36.017,0,0,0,4.1-.191,11.772,11.772,0,0,0,2.76-.619,6.78,6.78,0,0,0,1.95-1.1,8.215,8.215,0,0,0,1.48-1.619l12.76-18.285a41.116,41.116,0,0,0,3.33-5.381,33.813,33.813,0,0,0,2.19-5.381,33.293,33.293,0,0,0,1.24-5.857,56.793,56.793,0,0,0,.38-6.809A16.079,16.079,0,0,0,2836.19,665.888Zm92.07,78.617a32.265,32.265,0,0,0-6-9.524,39.048,39.048,0,0,0-8.48-6.952,95.233,95.233,0,0,0-9.71-5.19q-4.95-2.286-9.71-4.333a64.381,64.381,0,0,1-8.53-4.381,21.412,21.412,0,0,1-6-5.333,11.548,11.548,0,0,1-2.24-7.1,13.987,13.987,0,0,1,1-5.238,11,11,0,0,1,3.05-4.238,14.757,14.757,0,0,1,5.1-2.762,22.923,22.923,0,0,1,7.14-1,34.043,34.043,0,0,1,9.62,1.286,53.285,53.285,0,0,1,7.71,2.857c2.22,1.047,4.1,2.016,5.62,2.9a7.909,7.909,0,0,0,3.33,1.334,2.362,2.362,0,0,0,1.67-.572,3.735,3.735,0,0,0,.95-1.809,17.976,17.976,0,0,0,.48-3.143c0.09-1.269.14-2.824,0.14-4.667q0-2.475-.09-4.142a18.856,18.856,0,0,0-.34-2.762,7.857,7.857,0,0,0-.57-1.762,6.9,6.9,0,0,0-1.28-1.619,15.958,15.958,0,0,0-3.91-2.381,45.823,45.823,0,0,0-6.76-2.571,59.924,59.924,0,0,0-8.19-1.81,58.325,58.325,0,0,0-8.76-.666,57.52,57.52,0,0,0-16.05,2.19,37.638,37.638,0,0,0-13.14,6.619,31.873,31.873,0,0,0-8.86,11.142,35.02,35.02,0,0,0-3.28,15.571,34.627,34.627,0,0,0,2.28,13.238,32.969,32.969,0,0,0,5.95,9.571,39.117,39.117,0,0,0,8.34,6.952,86.8,86.8,0,0,0,9.62,5.191q4.95,2.286,9.61,4.333a62.37,62.37,0,0,1,8.34,4.381,22.675,22.675,0,0,1,5.95,5.333,11.545,11.545,0,0,1,2.29,7.19,15.761,15.761,0,0,1-1.34,6.571,13.061,13.061,0,0,1-3.86,4.953,18.29,18.29,0,0,1-6.14,3.095,28.239,28.239,0,0,1-8.19,1.1,43.149,43.149,0,0,1-12.24-1.571,56.51,56.51,0,0,1-9.09-3.476,66.431,66.431,0,0,1-6.24-3.477,7.906,7.906,0,0,0-3.76-1.571,2.758,2.758,0,0,0-1.67.524,3.625,3.625,0,0,0-1.14,1.762,14.224,14.224,0,0,0-.62,3.238c-0.13,1.333-.19,2.985-0.19,4.952a32.617,32.617,0,0,0,.52,6.714,7.1,7.1,0,0,0,1.77,3.571,19.985,19.985,0,0,0,4.04,2.857,42.579,42.579,0,0,0,7,3.1,67.636,67.636,0,0,0,9.67,2.523,63.155,63.155,0,0,0,11.86,1.048,61.58,61.58,0,0,0,17.71-2.476,42.791,42.791,0,0,0,14.48-7.381,35.474,35.474,0,0,0,9.81-12.238,38.1,38.1,0,0,0,3.61-17.047A33.432,33.432,0,0,0,2928.26,744.505Z" transform="translate(-2468.53 -95.469)"/>
      <path id="BURGER_" data-name="BURGER " class="cls-2" d="M2534.59,867.719a21.56,21.56,0,0,0-3.93-6.662,20.622,20.622,0,0,0-5.83-4.646,24.65,24.65,0,0,0-7.31-2.521,20.72,20.72,0,0,0,5.51-3.025,18.821,18.821,0,0,0,4.07-4.321,19.315,19.315,0,0,0,2.52-5.438,22.7,22.7,0,0,0,.86-6.374,23.912,23.912,0,0,0-2.16-10.516,19.222,19.222,0,0,0-6.23-7.382,28.544,28.544,0,0,0-10.01-4.358,62.586,62.586,0,0,0-14.51-1.44h-23.41a5.9,5.9,0,0,0-4,1.4q-1.62,1.4-1.62,4.574v81.243q0,3.171,1.62,4.574a5.9,5.9,0,0,0,4,1.4h24.78a69.166,69.166,0,0,0,10.19-.684,45.562,45.562,0,0,0,8.61-2.125,33.722,33.722,0,0,0,7.38-3.673,24.464,24.464,0,0,0,5.76-5.33,23.972,23.972,0,0,0,3.78-7.13,27.967,27.967,0,0,0,1.37-9A24.137,24.137,0,0,0,2534.59,867.719Zm-23.84-25.893a10.813,10.813,0,0,1-2.41,3.961,11.333,11.333,0,0,1-4.07,2.665,18.173,18.173,0,0,1-6.56.973h-10.58v-24.2h9.58a25.188,25.188,0,0,1,7.02.793,12.027,12.027,0,0,1,4.36,2.268,9.175,9.175,0,0,1,2.59,3.71,14.013,14.013,0,0,1,.86,5.041A14.369,14.369,0,0,1,2510.75,841.826Zm4.5,40.622a11.172,11.172,0,0,1-3.1,4.033,13.558,13.558,0,0,1-4.68,2.449,22.968,22.968,0,0,1-6.66.828h-13.68v-26.5h11.23a31.177,31.177,0,0,1,8.43.937,14.587,14.587,0,0,1,5.33,2.665,11.086,11.086,0,0,1,3.17,4.285,14.777,14.777,0,0,1,1.08,5.8A12.893,12.893,0,0,1,2515.25,882.448Zm105.1-68.82a2.1,2.1,0,0,0-.43-1.3,3.044,3.044,0,0,0-1.51-.936,15.061,15.061,0,0,0-2.85-.576,37.888,37.888,0,0,0-4.5-.217,39.916,39.916,0,0,0-4.57.217,15.12,15.12,0,0,0-2.92.576,3.044,3.044,0,0,0-1.51.936,2.1,2.1,0,0,0-.43,1.3v56.108a26.648,26.648,0,0,1-1.34,8.751,18.038,18.038,0,0,1-3.78,6.482,15.8,15.8,0,0,1-5.98,4,21.917,21.917,0,0,1-7.99,1.369,22.591,22.591,0,0,1-7.96-1.333,16.165,16.165,0,0,1-6.12-4,17.737,17.737,0,0,1-3.93-6.735,30.316,30.316,0,0,1-1.36-9.615V813.628a2.019,2.019,0,0,0-.47-1.3,3.342,3.342,0,0,0-1.55-.936,15.106,15.106,0,0,0-2.88-.576,39.108,39.108,0,0,0-4.54-.217,39.828,39.828,0,0,0-4.61.217,16.139,16.139,0,0,0-2.92.576,3.015,3.015,0,0,0-1.54.936,2.106,2.106,0,0,0-.44,1.3v56.684a43.29,43.29,0,0,0,2.56,15.593,29,29,0,0,0,7.38,11.128,30.677,30.677,0,0,0,11.81,6.662,52.566,52.566,0,0,0,15.78,2.2,51.38,51.38,0,0,0,16.56-2.449,32.2,32.2,0,0,0,12.1-7.13,30.056,30.056,0,0,0,7.42-11.452,43.757,43.757,0,0,0,2.52-15.342V813.628Zm82.09,86.178q-0.36-1.26-1.44-4l-7.85-18.366a60.109,60.109,0,0,0-2.81-5.942,33.588,33.588,0,0,0-3.06-4.681,20.531,20.531,0,0,0-3.46-3.494,21.412,21.412,0,0,0-3.92-2.448,30.867,30.867,0,0,0,7.71-3.6,23.141,23.141,0,0,0,5.69-5.257,21.968,21.968,0,0,0,3.49-6.879,28.939,28.939,0,0,0,1.19-8.535,27.227,27.227,0,0,0-1.66-9.831,21.066,21.066,0,0,0-4.79-7.419,24.266,24.266,0,0,0-7.63-5.077,39.434,39.434,0,0,0-10.12-2.737q-1.95-.216-4.32-0.36-2.385-.144-6.06-0.144h-24.12a5.886,5.886,0,0,0-4,1.4q-1.62,1.4-1.62,4.574v84.628a2.093,2.093,0,0,0,.43,1.3,3.03,3.03,0,0,0,1.51.936,15.2,15.2,0,0,0,2.92.576,48.876,48.876,0,0,0,9.18,0,15.028,15.028,0,0,0,2.88-.576,3.274,3.274,0,0,0,1.55-.936,2.016,2.016,0,0,0,.47-1.3V866.134h5.91a14.124,14.124,0,0,1,5.33.937,11.783,11.783,0,0,1,4.07,2.773,20.169,20.169,0,0,1,3.2,4.573c0.96,1.826,1.95,3.914,2.95,6.266l8.36,20.815a5.507,5.507,0,0,0,.72,1.477,3.08,3.08,0,0,0,1.48,1.008,10.593,10.593,0,0,0,2.84.54q1.8,0.144,4.83.144c2.4,0,4.29-.048,5.69-0.144a13.62,13.62,0,0,0,3.17-.5,2.265,2.265,0,0,0,1.36-.9,2.713,2.713,0,0,0,.29-1.333A7.73,7.73,0,0,0,2702.44,899.806Zm-25.06-55.783a11.224,11.224,0,0,1-3.03,4.213,14.01,14.01,0,0,1-5.04,2.737,23.138,23.138,0,0,1-7.06.973h-9.65V825.513h8.5a46.159,46.159,0,0,1,5.08.216,26.782,26.782,0,0,1,3.28.576,11.4,11.4,0,0,1,6.84,4.465,13.856,13.856,0,0,1,2.09,7.779A14.293,14.293,0,0,1,2677.38,844.023Zm105.57-23.948a5.991,5.991,0,0,0-1.41-2.845,15.61,15.61,0,0,0-3.42-2.377,33.8,33.8,0,0,0-6.16-2.557,62.072,62.072,0,0,0-8.68-2.017,67.35,67.35,0,0,0-11.02-.828,56.228,56.228,0,0,0-19.98,3.385,42.414,42.414,0,0,0-15.31,9.76,43.529,43.529,0,0,0-9.79,15.485,57.511,57.511,0,0,0-3.46,20.563,56.874,56.874,0,0,0,3.24,19.843,39.215,39.215,0,0,0,24.31,24.128,58.277,58.277,0,0,0,19.99,3.205q3.81,0,7.59-.36c2.53-.241,5.02-0.6,7.5-1.081s4.86-1.055,7.16-1.728,4.24-1.32,5.8-1.945a5.415,5.415,0,0,0,3.1-2.557,8.92,8.92,0,0,0,.75-3.781V857.275a8.333,8.333,0,0,0-.36-2.557,5.537,5.537,0,0,0-1.04-1.908,4.516,4.516,0,0,0-1.59-1.189,5.048,5.048,0,0,0-2.05-.4h-31.47a1.834,1.834,0,0,0-1.16.4,3.149,3.149,0,0,0-.86,1.225,8.371,8.371,0,0,0-.54,2.2,26.618,26.618,0,0,0-.18,3.385,14.879,14.879,0,0,0,.72,5.51,2.241,2.241,0,0,0,2.02,1.62h17.64v21.607a22.869,22.869,0,0,1-5.76,2.161,27.483,27.483,0,0,1-6.27.72,32.328,32.328,0,0,1-11.84-2.088,24.527,24.527,0,0,1-9.19-6.194,28.678,28.678,0,0,1-5.94-10.192,42.582,42.582,0,0,1-2.12-14.081,40.092,40.092,0,0,1,2.09-13.288,29.531,29.531,0,0,1,5.97-10.3,26.7,26.7,0,0,1,9.37-6.626,30.847,30.847,0,0,1,12.24-2.341,42.8,42.8,0,0,1,11.13,1.3,59.956,59.956,0,0,1,8.25,2.809,44.834,44.834,0,0,1,5.54,2.809,7,7,0,0,0,3.03,1.3,1.754,1.754,0,0,0,1.11-.36,2.762,2.762,0,0,0,.8-1.26,11.717,11.717,0,0,0,.5-2.413,31,31,0,0,0,.18-3.6A25.4,25.4,0,0,0,2782.95,820.075Zm67.79,73.249a8.993,8.993,0,0,0-.54-2.269,2.9,2.9,0,0,0-.9-1.261,1.981,1.981,0,0,0-1.19-.4h-33.56V863.109h28.16a2.1,2.1,0,0,0,1.19-.36,2.64,2.64,0,0,0,.9-1.188,8.36,8.36,0,0,0,.54-2.2,32.941,32.941,0,0,0,0-6.878,8.435,8.435,0,0,0-.54-2.233,2.918,2.918,0,0,0-.9-1.224,1.975,1.975,0,0,0-1.19-.4h-28.16V825.873h33.27a1.848,1.848,0,0,0,1.16-.4,3.12,3.12,0,0,0,.86-1.261,8.993,8.993,0,0,0,.54-2.269,27.492,27.492,0,0,0,.18-3.421,28.947,28.947,0,0,0-.18-3.565,9.618,9.618,0,0,0-.54-2.305,2.816,2.816,0,0,0-.86-1.26,1.969,1.969,0,0,0-1.16-.36h-46.53a5.878,5.878,0,0,0-3.99,1.4q-1.62,1.4-1.62,4.574v81.243q0,3.171,1.62,4.574a5.878,5.878,0,0,0,3.99,1.4h46.82a1.968,1.968,0,0,0,1.19-.4,2.889,2.889,0,0,0,.9-1.26,9,9,0,0,0,.54-2.269A33.982,33.982,0,0,0,2850.74,893.324Zm78.74,6.482q-0.36-1.26-1.44-4l-7.85-18.366a60.109,60.109,0,0,0-2.81-5.942,33.588,33.588,0,0,0-3.06-4.681,20.531,20.531,0,0,0-3.46-3.494,21.412,21.412,0,0,0-3.92-2.448,30.63,30.63,0,0,0,7.7-3.6,22.79,22.79,0,0,0,5.69-5.257,21.99,21.99,0,0,0,3.5-6.879,28.946,28.946,0,0,0,1.18-8.535,27.231,27.231,0,0,0-1.65-9.831,21.206,21.206,0,0,0-4.79-7.419,24.313,24.313,0,0,0-7.64-5.077,39.213,39.213,0,0,0-10.12-2.737q-1.935-.216-4.32-0.36-2.37-.144-6.05-0.144h-24.13a5.878,5.878,0,0,0-3.99,1.4q-1.62,1.4-1.62,4.574v84.628a2.093,2.093,0,0,0,.43,1.3,3.03,3.03,0,0,0,1.51.936,15.044,15.044,0,0,0,2.92.576,48.876,48.876,0,0,0,9.18,0,15.028,15.028,0,0,0,2.88-.576,3.274,3.274,0,0,0,1.55-.936,2.016,2.016,0,0,0,.47-1.3V866.134h5.91a14.035,14.035,0,0,1,5.32.937,11.6,11.6,0,0,1,4.07,2.773,19.879,19.879,0,0,1,3.21,4.573q1.44,2.739,2.95,6.266l8.36,20.815a5.507,5.507,0,0,0,.72,1.477,3.1,3.1,0,0,0,1.47,1.008,10.761,10.761,0,0,0,2.85.54c1.2,0.1,2.81.144,4.82,0.144,2.41,0,4.3-.048,5.69-0.144a13.525,13.525,0,0,0,3.17-.5,2.294,2.294,0,0,0,1.37-.9,2.828,2.828,0,0,0,.29-1.333A7.73,7.73,0,0,0,2929.48,899.806Zm-25.06-55.783a11.334,11.334,0,0,1-3.03,4.213,14.01,14.01,0,0,1-5.04,2.737,23.138,23.138,0,0,1-7.06.973h-9.65V825.513h8.5a46.159,46.159,0,0,1,5.08.216,26.265,26.265,0,0,1,3.27.576,11.4,11.4,0,0,1,6.85,4.465,13.853,13.853,0,0,1,2.08,7.779A14.292,14.292,0,0,1,2904.42,844.023Z" transform="translate(-2468.53 -95.469)"/>
    </g>
  </g>
</svg>
