<svg width="96" height="96" viewBox="0 0 96 96" fill="none" xmlns="http://www.w3.org/2000/svg">
<g clip-path="url(#clip0_2008_6)">
<path d="M96 48C96 21.4905 74.5095 0 48 0C21.4905 0 0 21.4905 0 48C0 71.958 17.553 91.8161 40.5 95.4169V61.875H28.3125V48H40.5V37.425C40.5 25.395 47.6663 18.75 58.6305 18.75C63.882 18.75 69.375 19.6875 69.375 19.6875V31.5H63.3225C57.3596 31.5 55.5 35.2001 55.5 38.9962V48H68.8125L66.6844 61.875H55.5V95.4169C78.447 91.8161 96 71.9584 96 48Z" fill="#1877F2"/>
<path d="M66.6844 61.875L68.8125 48H55.5V38.9962C55.5 35.1997 57.3596 31.5 63.3225 31.5H69.375V19.6875C69.375 19.6875 63.882 18.75 58.6301 18.75C47.6663 18.75 40.5 25.395 40.5 37.425V48H28.3125V61.875H40.5V95.4169C42.9811 95.8056 45.4887 96.0006 48 96C50.5113 96.0006 53.0189 95.8056 55.5 95.4169V61.875H66.6844Z" fill="white"/>
</g>
<defs>
<clipPath id="clip0_2008_6">
<rect width="96" height="96" fill="white"/>
</clipPath>
</defs>
</svg>
