<svg width="96" height="96" viewBox="0 0 96 96" fill="none" xmlns="http://www.w3.org/2000/svg">
<g clip-path="url(#clip0_2008_9)">
<path d="M73.5 0H22.5C10.0736 0 0 10.0736 0 22.5V73.5C0 85.9264 10.0736 96 22.5 96H73.5C85.9264 96 96 85.9264 96 73.5V22.5C96 10.0736 85.9264 0 73.5 0Z" fill="url(#paint0_radial_2008_9)"/>
<path d="M73.5 0H22.5C10.0736 0 0 10.0736 0 22.5V73.5C0 85.9264 10.0736 96 22.5 96H73.5C85.9264 96 96 85.9264 96 73.5V22.5C96 10.0736 85.9264 0 73.5 0Z" fill="url(#paint1_radial_2008_9)"/>
<path d="M48.0034 10.5C37.8191 10.5 36.5408 10.5446 32.541 10.7265C28.5488 10.9095 25.8236 11.5414 23.4394 12.4688C20.9726 13.4265 18.8805 14.7079 16.7963 16.7929C14.7101 18.8775 13.4288 20.9696 12.468 23.4352C11.538 25.8202 10.9054 28.5465 10.7257 32.5369C10.5469 36.537 10.5 37.8158 10.5 48.0004C10.5 58.185 10.545 59.4592 10.7265 63.459C10.9103 67.4512 11.5421 70.1764 12.4688 72.5606C13.4272 75.0274 14.7086 77.1195 16.7936 79.2038C18.8775 81.2899 20.9696 82.5742 23.4345 83.532C25.8206 84.4594 28.5461 85.0912 32.5376 85.2742C36.5377 85.4561 37.815 85.5007 47.9989 85.5007C58.1843 85.5007 59.4585 85.4561 63.4583 85.2742C67.4505 85.0912 70.1786 84.4594 72.5647 83.532C75.0304 82.5742 77.1195 81.2899 79.203 79.2038C81.2891 77.1195 82.5701 75.0274 83.5312 72.5618C84.453 70.1764 85.086 67.4505 85.2735 63.4597C85.4531 59.46 85.5 58.185 85.5 48.0004C85.5 37.8158 85.4531 36.5377 85.2735 32.5376C85.086 28.5454 84.453 25.8206 83.5312 23.4364C82.5701 20.9696 81.2891 18.8775 79.203 16.7929C77.1172 14.7071 75.0311 13.4257 72.5625 12.4691C70.1719 11.5414 67.4452 10.9091 63.453 10.7265C59.4529 10.5446 58.1794 10.5 47.9917 10.5H48.0034ZM44.6393 17.2579C45.6379 17.2564 46.752 17.2579 48.0034 17.2579C58.0163 17.2579 59.2027 17.2939 63.1567 17.4735C66.813 17.6408 68.7975 18.2516 70.1194 18.765C71.8695 19.4445 73.1171 20.2571 74.4289 21.57C75.7414 22.8825 76.5536 24.1324 77.235 25.8825C77.7484 27.2025 78.36 29.187 78.5265 32.8433C78.7061 36.7965 78.7451 37.9837 78.7451 47.9917C78.7451 57.9997 78.7061 59.1874 78.5265 63.1402C78.3593 66.7965 77.7484 68.781 77.235 70.1014C76.5555 71.8515 75.7414 73.0976 74.4289 74.4094C73.1164 75.7219 71.8703 76.5341 70.1194 77.214C68.799 77.7296 66.813 78.339 63.1567 78.5063C59.2035 78.6859 58.0163 78.7249 48.0034 78.7249C37.9901 78.7249 36.8032 78.6859 32.8504 78.5063C29.1941 78.3375 27.2096 77.7266 25.8866 77.2132C24.1369 76.5334 22.8866 75.7211 21.5741 74.4086C20.2616 73.0961 19.4494 71.8493 18.768 70.0984C18.2546 68.778 17.643 66.7935 17.4765 63.1372C17.2969 59.184 17.2609 57.9968 17.2609 47.9824C17.2609 37.968 17.2969 36.7871 17.4765 32.8339C17.6438 29.1776 18.2546 27.1931 18.768 25.8712C19.4479 24.1211 20.2616 22.8713 21.5745 21.5588C22.8874 20.2463 24.1369 19.4336 25.887 18.7526C27.2089 18.237 29.1941 17.6276 32.8504 17.4596C36.3097 17.3032 37.6504 17.2564 44.6393 17.2485V17.2579ZM68.0209 23.4844C65.5365 23.4844 63.5209 25.4981 63.5209 27.9829C63.5209 30.4673 65.5365 32.4829 68.0209 32.4829C70.5053 32.4829 72.5209 30.4673 72.5209 27.9829C72.5209 25.4985 70.5053 23.4829 68.0209 23.4829V23.4844ZM48.0034 28.7423C37.3684 28.7423 28.7456 37.365 28.7456 48.0004C28.7456 58.6358 37.3684 67.2544 48.0034 67.2544C58.6388 67.2544 67.2585 58.6358 67.2585 48.0004C67.2585 37.3654 58.638 28.7423 48.0026 28.7423H48.0034ZM48.0034 35.5001C54.9068 35.5001 60.5036 41.0963 60.5036 48.0004C60.5036 54.9038 54.9068 60.5006 48.0034 60.5006C41.1 60.5006 35.5035 54.9038 35.5035 48.0004C35.5035 41.0963 41.0996 35.5001 48.0034 35.5001Z" fill="white"/>
</g>
<defs>
<radialGradient id="paint0_radial_2008_9" cx="0" cy="0" r="1" gradientUnits="userSpaceOnUse" gradientTransform="translate(25.5 103.394) rotate(-90) scale(95.1431 88.4906)">
<stop stop-color="#FFDD55"/>
<stop offset="0.1" stop-color="#FFDD55"/>
<stop offset="0.5" stop-color="#FF543E"/>
<stop offset="1" stop-color="#C837AB"/>
</radialGradient>
<radialGradient id="paint1_radial_2008_9" cx="0" cy="0" r="1" gradientUnits="userSpaceOnUse" gradientTransform="translate(-16.0804 6.91537) rotate(78.681) scale(42.5295 175.308)">
<stop stop-color="#3771C8"/>
<stop offset="0.128" stop-color="#3771C8"/>
<stop offset="1" stop-color="#6600FF" stop-opacity="0"/>
</radialGradient>
<clipPath id="clip0_2008_9">
<rect width="96" height="96" fill="white"/>
</clipPath>
</defs>
</svg>
