<svg width="96" height="96" viewBox="0 0 96 96" fill="none" xmlns="http://www.w3.org/2000/svg">
<g clip-path="url(#clip0_2008_2)">
<path d="M2.03487 47.4255C2.03263 55.4914 4.14017 63.3671 8.14761 70.3089L1.65161 94.0269L25.924 87.6626C32.6374 91.3172 40.1593 93.2322 47.8031 93.2328H47.8231C73.0566 93.2328 93.5973 72.6996 93.6081 47.4616C93.6129 35.2321 88.8546 23.7322 80.2094 15.0802C71.5657 6.42908 60.0698 1.6622 47.8213 1.65662C22.5848 1.65662 2.04566 22.1887 2.03524 47.4255" fill="url(#paint0_linear_2008_2)"/>
<path d="M0.400215 47.4106C0.39761 55.7667 2.58068 63.9241 6.73101 71.1144L0.0020752 95.6826L25.1448 89.0902C32.0724 92.8673 39.8722 94.8588 47.809 94.8618H47.8294C73.9682 94.8618 95.2467 73.59 95.2579 47.4486C95.2624 34.7795 90.3329 22.8662 81.3788 13.9044C72.4237 4.94363 60.5167 0.0052093 47.8294 0C21.6862 0 0.410633 21.2688 0.400215 47.4106ZM15.3736 69.8761L14.4348 68.3859C10.4884 62.1109 8.40542 54.8595 8.4084 47.4136C8.41659 25.6852 26.0999 8.00744 47.8443 8.00744C58.3745 8.01191 68.2707 12.1168 75.7141 19.5647C83.1571 27.0132 87.2527 36.9146 87.2501 47.4456C87.2404 69.174 69.5567 86.854 47.8294 86.854H47.8138C40.7392 86.8502 33.8008 84.9503 27.7498 81.36L26.3098 80.506L11.3896 84.4179L15.3736 69.8761Z" fill="url(#paint1_linear_2008_2)"/>
<path d="M35.9753 27.59C35.0875 25.6168 34.1532 25.5769 33.3089 25.5423C32.6176 25.5126 31.8272 25.5148 31.0376 25.5148C30.2473 25.5148 28.9632 25.8121 27.8778 26.9972C26.7913 28.1835 23.7297 31.0501 23.7297 36.8804C23.7297 42.7107 27.9764 48.3457 28.5684 49.1371C29.1612 49.9271 36.7668 62.2746 48.8122 67.0248C58.8229 70.9723 60.8602 70.1872 63.0328 69.9892C65.2058 69.792 70.0445 67.1234 71.0317 64.3561C72.0196 61.5892 72.0196 59.2175 71.7234 58.7219C71.4272 58.2281 70.6369 57.9316 69.4518 57.3392C68.2667 56.7468 62.4401 53.8795 61.3539 53.4839C60.2674 53.0888 59.4775 52.8916 58.6871 54.0782C57.8968 55.2629 55.6274 57.9316 54.9357 58.7219C54.2447 59.5141 53.553 59.6127 52.3682 59.0199C51.1824 58.4253 47.3658 57.1755 42.8378 53.1386C39.3149 49.9974 36.9364 46.1183 36.2451 44.9317C35.5537 43.747 36.171 43.1048 36.7653 42.5143C37.2977 41.9833 37.9508 41.1304 38.5439 40.4387C39.1348 39.7466 39.332 39.2529 39.7271 38.4625C40.1227 37.6715 39.9247 36.9794 39.6289 36.3866C39.332 35.7939 37.0291 29.933 35.9753 27.59Z" fill="white"/>
</g>
<defs>
<linearGradient id="paint0_linear_2008_2" x1="4599.48" y1="9238.68" x2="4599.48" y2="1.65662" gradientUnits="userSpaceOnUse">
<stop stop-color="#1FAF38"/>
<stop offset="1" stop-color="#60D669"/>
</linearGradient>
<linearGradient id="paint1_linear_2008_2" x1="4762.79" y1="9568.26" x2="4762.79" y2="0" gradientUnits="userSpaceOnUse">
<stop stop-color="#F9F9F9"/>
<stop offset="1" stop-color="white"/>
</linearGradient>
<clipPath id="clip0_2008_2">
<rect width="95.26" height="96" fill="white"/>
</clipPath>
</defs>
</svg>
